<?xml version="1.0" encoding="UTF-8" standalone="no"?>
<!-- Created with Inkscape (http://www.inkscape.org/) -->

<svg
   xmlns:dc="http://purl.org/dc/elements/1.1/"
   xmlns:cc="http://creativecommons.org/ns#"
   xmlns:rdf="http://www.w3.org/1999/02/22-rdf-syntax-ns#"
   xmlns:svg="http://www.w3.org/2000/svg"
   xmlns="http://www.w3.org/2000/svg"
   xmlns:sodipodi="http://sodipodi.sourceforge.net/DTD/sodipodi-0.dtd"
   xmlns:inkscape="http://www.inkscape.org/namespaces/inkscape"
   width="50"
   height="55"
   id="svg3140"
   version="1.1"
   inkscape:version="0.48.4 r9943 custom"
   sodipodi:docname="logo.svg">
  <defs
     id="defs3142">
    <clipPath
       clipPathUnits="userSpaceOnUse"
       id="clipPath3931">
      <path
         inkscape:connector-curvature="0"
         id="path3933"
         d="m 69.192499,527.71829 c -3.408147,0 -6.630952,2.4046 -10.153184,5.22229 -3.522232,2.81768 -7.335325,6.06707 -12.131077,6.06707 -4.550968,0 -8.04666,-1.67056 -12.229972,-5.72148 l -14.339724,35.86485 0,0.0768 -0.03291,0.0768 c -1.382679,2.86028 -2.109753,5.29907 -2.109753,7.02705 0,2.41833 0.555498,3.96793 1.582315,5.0687 1.026806,1.10072 2.754503,1.91996 5.60403,1.91996 l 62.336593,0 c 2.849516,0 4.577214,-0.81924 5.60403,-1.91996 1.026817,-1.10077 1.582315,-2.65037 1.582315,-5.0687 0,-1.72798 -0.727084,-4.16677 -2.109753,-7.02705 -0.02584,-0.0542 -0.02184,-0.11133 -0.06593,-0.1536 -3.063656,-7.67949 -8.958051,-22.3711 -15.13088,-37.8232 -2.586683,-2.61441 -5.286924,-3.60953 -8.406045,-3.60953 z"
         style="fill:#ff4141;fill-opacity:1;stroke:none" />
    </clipPath>
  </defs>
  <sodipodi:namedview
     id="base"
     pagecolor="#ffffff"
     bordercolor="#666666"
     borderopacity="1.0"
     inkscape:pageopacity="0.0"
     inkscape:pageshadow="2"
     inkscape:zoom="3.7775862"
     inkscape:cx="4.2857143"
     inkscape:cy="20"
     inkscape:document-units="px"
     inkscape:current-layer="layer1"
     showgrid="false"
     inkscape:window-width="1280"
     inkscape:window-height="751"
     inkscape:window-x="0"
     inkscape:window-y="23"
     inkscape:window-maximized="0" />
  <metadata
     id="metadata3145">
    <rdf:RDF>
      <cc:Work
         rdf:about="">
        <dc:format>image/svg+xml</dc:format>
        <dc:type
           rdf:resource="http://purl.org/dc/dcmitype/StillImage" />
        <dc:title></dc:title>
      </cc:Work>
    </rdf:RDF>
  </metadata>
  <g
     inkscape:label="Layer 1"
     inkscape:groupmode="layer"
     id="layer1"
     transform="translate(0,-997.3622)">
    <g
       id="g3217"
       transform="translate(0,-2.4998)">
      <g
         id="g3031"
         transform="matrix(0.5020493,0,0,0.43099851,-3.39114,800.05821)"
         clip-path="url(#clipPath3931)">
        <rect
           style="fill:#ff358b;fill-opacity:1;stroke:none"
           id="rect3033"
           width="19.037878"
           height="62.871593"
           x="18.474762"
           y="524.55658" />
        <rect
           y="524.55658"
           x="56.550518"
           height="62.871593"
           width="19.037878"
           id="rect3035"
           style="fill:#aeee00;fill-opacity:1;stroke:none" />
        <rect
           y="524.55658"
           x="75.588402"
           height="62.871593"
           width="19.037878"
           id="rect3037"
           style="fill:#fef501;fill-opacity:1;stroke:none" />
        <rect
           y="524.55658"
           x="37.512638"
           height="62.871593"
           width="19.037878"
           id="rect3039"
           style="fill:#01b0f0;fill-opacity:1;stroke:none" />
      </g>
      <g
         id="text3047"
         style="font-size:18.96536446px;font-style:normal;font-variant:normal;font-weight:500;font-stretch:normal;text-align:start;line-height:125%;letter-spacing:0px;word-spacing:0px;writing-mode:lr-tb;text-anchor:start;fill:#000000;fill-opacity:1;stroke:none;font-family:Rubik;-inkscape-font-specification:Rubik Medium">
        <path
           inkscape:connector-curvature="0"
           id="path3194"
           d="m 20.956528,1045.2508 c 0.139073,0 0.259187,0.051 0.360342,0.1517 0.101142,0.1011 0.151716,0.2213 0.151723,0.3603 l 0,1.669 c -7e-6,0.1391 -0.05058,0.2592 -0.151723,0.3603 -0.101155,0.1012 -0.221269,0.1517 -0.360342,0.1517 l -1.631021,0 c -0.139084,0 -0.259198,-0.051 -0.360342,-0.1517 -0.101153,-0.1011 -0.151727,-0.2212 -0.151723,-0.3603 l 0,-1.669 c -4e-6,-0.139 0.05057,-0.2592 0.151723,-0.3603 0.101144,-0.1012 0.221258,-0.1517 0.360342,-0.1517 l 1.631021,0 m -0.758614,-10.7724 c 0.594242,10e-5 1.169524,0.082 1.725848,0.2466 0.568953,0.1644 1.068374,0.4109 1.498264,0.7396 0.442516,0.3161 0.796535,0.7144 1.06206,1.1949 0.265505,0.4678 0.398262,1.0115 0.398273,1.631 -1.1e-5,0.5057 -0.08219,0.9483 -0.24655,1.3276 -0.151733,0.3666 -0.35403,0.7017 -0.606892,1.0051 -0.240237,0.2908 -0.505752,0.5627 -0.796545,0.8155 -0.290811,0.2403 -0.568969,0.4742 -0.834476,0.7017 -0.252879,0.215 -0.480463,0.4426 -0.682753,0.6828 -0.189661,0.2402 -0.303453,0.4994 -0.341377,0.7776 -0.02529,0.1391 -0.08219,0.2592 -0.170688,0.3603 -0.08851,0.1012 -0.202304,0.1517 -0.341377,0.1517 l -1.441367,0 c -0.139084,0 -0.26552,-0.051 -0.379308,-0.1517 -0.101152,-0.1011 -0.145405,-0.2212 -0.132757,-0.3603 0.02528,-0.4931 0.126431,-0.923 0.303446,-1.2897 0.189649,-0.3793 0.410911,-0.7143 0.663787,-1.0051 0.26551,-0.3035 0.543669,-0.5753 0.834476,-0.8155 0.30344,-0.2403 0.581598,-0.4678 0.834476,-0.6828 0.252865,-0.2276 0.461484,-0.4488 0.625857,-0.6638 0.164359,-0.2276 0.246543,-0.4741 0.24655,-0.7396 -7e-6,-0.4805 -0.202304,-0.8724 -0.606891,-1.1759 -0.404602,-0.3161 -0.941953,-0.4741 -1.612056,-0.4741 -1.074709,0 -1.864931,0.5373 -2.370671,1.612 -0.06322,0.1391 -0.13276,0.2466 -0.208619,0.3224 -0.06322,0.063 -0.177013,0.095 -0.341377,0.095 l -1.536194,0 c -0.113793,0 -0.214942,-0.038 -0.303446,-0.1138 -0.07586,-0.076 -0.113793,-0.177 -0.113792,-0.3035 0.01264,-0.4425 0.1454,-0.8913 0.398273,-1.3465 0.265513,-0.4678 0.613211,-0.885 1.043095,-1.2517 0.442522,-0.3793 0.954587,-0.6891 1.536194,-0.9293 0.594244,-0.2402 1.226422,-0.3603 1.896537,-0.3604" />
        <path
           inkscape:connector-curvature="0"
           id="path3196"
           d="m 32.210694,1045.118 c -7e-6,-0.1391 -0.04426,-0.2529 -0.132758,-0.3414 -0.08851,-0.088 -0.246556,-0.1707 -0.474134,-0.2465 -0.214947,-0.076 -0.505749,-0.1517 -0.872407,-0.2276 -0.366668,-0.076 -0.83448,-0.177 -1.403437,-0.3034 -0.55632,-0.1265 -1.01781,-0.2845 -1.384471,-0.4742 -0.366666,-0.1896 -0.66379,-0.4109 -0.891372,-0.6638 -0.214943,-0.2528 -0.366665,-0.5373 -0.455169,-0.8534 -0.08851,-0.3287 -0.132759,-0.6828 -0.132758,-1.0621 -1e-6,-0.3793 0.0885,-0.7523 0.265515,-1.1189 0.177009,-0.3667 0.42988,-0.6891 0.758615,-0.9673 0.341374,-0.2908 0.75229,-0.5247 1.232749,-0.7017 0.480452,-0.177 1.030447,-0.2655 1.649986,-0.2655 0.61953,0 1.169525,0.07 1.649987,0.2086 0.493093,0.1391 0.91033,0.3224 1.251714,0.55 0.341369,0.2276 0.606883,0.4931 0.796545,0.7966 0.189645,0.2908 0.297116,0.5879 0.322412,0.8913 0.01263,0.1391 -0.03794,0.2592 -0.151723,0.3604 -0.101158,0.1011 -0.221271,0.1517 -0.360342,0.1517 l -1.460333,0 c -0.189661,0 -0.335062,-0.032 -0.436204,-0.095 -0.08851,-0.076 -0.18966,-0.1581 -0.303446,-0.2466 -0.113798,-0.088 -0.26552,-0.1643 -0.455168,-0.2276 -0.189659,-0.076 -0.47414,-0.1137 -0.853442,-0.1138 -0.379311,10e-5 -0.714366,0.057 -1.005164,0.1707 -0.290806,0.1138 -0.436207,0.3161 -0.436203,0.6069 -4e-6,0.1391 0.0316,0.2592 0.09483,0.3604 0.07586,0.089 0.208616,0.1707 0.398273,0.2465 0.202293,0.076 0.47413,0.1581 0.815511,0.2466 0.354015,0.076 0.809183,0.1707 1.365506,0.2845 1.125271,0.2402 1.915494,0.6195 2.370671,1.1379 0.467803,0.5057 0.701709,1.1379 0.701718,1.8965 -9e-6,0.3793 -0.09484,0.7523 -0.28448,1.119 -0.189663,0.354 -0.467821,0.6764 -0.834476,0.9672 -0.354028,0.2782 -0.796553,0.5057 -1.327576,0.6828 -0.518393,0.1643 -1.106318,0.2465 -1.763779,0.2465 -0.670114,0 -1.264361,-0.076 -1.782744,-0.2276 -0.505746,-0.1643 -0.935627,-0.373 -1.289645,-0.6258 -0.354022,-0.2529 -0.625858,-0.5374 -0.815511,-0.8535 -0.189654,-0.3161 -0.290803,-0.6258 -0.303445,-0.9293 -0.01264,-0.1391 0.03161,-0.2592 0.132757,-0.3603 0.113791,-0.1012 0.240227,-0.1517 0.379307,-0.1517 l 1.460334,0 c 0.18965,0 0.328729,0.044 0.417238,0.1327 0.101145,0.089 0.208615,0.1897 0.322411,0.3035 0.126432,0.1137 0.29712,0.2149 0.512065,0.3034 0.214936,0.089 0.537347,0.1328 0.967233,0.1328 0.189649,0 0.385624,-0.013 0.587926,-0.038 0.202292,-0.025 0.385624,-0.063 0.549996,-0.1138 0.177004,-0.063 0.322405,-0.139 0.436203,-0.2275 0.113786,-0.1012 0.170682,-0.2213 0.170689,-0.3604" />
      </g>
      <path
         sodipodi:nodetypes="ssssccccssssssccccsssssccccccccccccccssssssccc"
         inkscape:connector-curvature="0"
         id="path3051"
         d="m 15.972202,1000.8822 c -1.312818,0 -2.405854,1.093 -2.405854,2.4059 l 0,3.6126 c 0,1.3129 1.093036,2.4059 2.405854,2.4059 l 0.607303,0 0,9.3821 c -3.953575,8.5109 -7.9184072,17.0193 -11.8891337,25.5223 l -0.03893,0.093 c -0.7660372,1.3763 -1.3158245,2.7246 -1.3158245,4.1188 0,1.5263 0.5050723,2.9577 1.5805466,3.9474 1.0754717,0.9898 2.6033454,1.4716 4.4379877,1.4716 l 31.2917049,0 c 1.834643,0 3.362514,-0.4818 4.437988,-1.4716 1.075472,-0.9897 1.580547,-2.4211 1.580547,-3.9474 0,-1.3942 -0.549788,-2.7425 -1.315825,-4.1188 l -0.03893,-0.093 -11.881349,-25.5223 0,-9.3821 0.599517,0 c 1.31282,0 2.405857,-1.093 2.405857,-2.4059 l 0,-3.6126 c 0,-1.3129 -1.093037,-2.4059 -2.405857,-2.4059 z m 3.01316,18.3359 0,-11.1183 0,-1.1991 -1.206822,0 -1.806338,0 0,-3.6126 18.055602,0 0,3.6126 -1.806338,0 -1.199036,0 0,1.1991 0,11.1183 c 4.447207,9.6029 9.846441,21.1577 12.146072,26.1063 0.02215,0.018 0.02593,0.047 0.03892,0.07 0.69417,1.2328 1.051103,2.284 1.051103,3.0288 0,1.0423 -0.270871,1.7056 -0.786381,2.18 -0.515511,0.4744 -1.395697,0.8331 -2.826297,0.8331 l -31.291705,0 c -1.4306005,0 -2.3029999,-0.3587 -2.8185116,-0.8331 -0.5155116,-0.4744 -0.7941662,-1.1377 -0.7941662,-2.18 0,-0.7448 0.3647185,-1.796 1.0588883,-3.0288 l 0.015572,-0.039 0.015572,-0.031"
         style="text-indent:0;text-transform:none;direction:ltr;block-progression:tb;baseline-shift:baseline;color:#000000;fill:#000000;fill-opacity:1;stroke:none;marker:none;visibility:visible;display:inline;overflow:visible;enable-background:accumulate" />
      <path
         sodipodi:nodetypes="sccsssccscs"
         inkscape:connector-curvature="0"
         id="path3053"
         d="m 31.346428,1025.0366 c 0.950219,0 1.863969,0.1608 2.737692,0.4783 l 1.583362,3.5847 c -1.326638,-1.1886 -2.717623,-1.6301 -4.321054,-1.6301 -1.711059,0 -3.323143,1.0387 -5.091482,2.2531 -1.768333,1.2145 -3.684453,2.6119 -6.092155,2.6119 -2.28481,0 -4.042273,-0.7212 -6.142502,-2.4671 l 0.843336,-2.326 c 2.057415,1.8469 3.246126,2.3601 5.299166,2.3601 1.625326,0 3.211067,-1.0478 4.984488,-2.2657 1.773422,-1.2179 3.732761,-2.5992 6.199149,-2.5992 z"
         style="text-indent:0;text-transform:none;direction:ltr;block-progression:tb;baseline-shift:baseline;color:#000000;fill:#000000;fill-opacity:1;stroke:none;marker:none;visibility:visible;display:inline;overflow:visible;enable-background:accumulate" />
    </g>
  </g>
</svg>
