<?xml version="1.0" encoding="UTF-8" standalone="no"?>
<!-- Created with Inkscape (http://www.inkscape.org/) -->

<svg
   xmlns:dc="http://purl.org/dc/elements/1.1/"
   xmlns:cc="http://creativecommons.org/ns#"
   xmlns:rdf="http://www.w3.org/1999/02/22-rdf-syntax-ns#"
   xmlns:svg="http://www.w3.org/2000/svg"
   xmlns="http://www.w3.org/2000/svg"
   xmlns:sodipodi="http://sodipodi.sourceforge.net/DTD/sodipodi-0.dtd"
   xmlns:inkscape="http://www.inkscape.org/namespaces/inkscape"
   width="50"
   height="55"
   id="svg3140"
   version="1.1"
   inkscape:version="0.48.4 r9943 custom"
   sodipodi:docname="logo.svg">
  <defs
     id="defs3142">
    <clipPath
       clipPathUnits="userSpaceOnUse"
       id="clipPath3931">
      <path
         inkscape:connector-curvature="0"
         id="path3933"
         d="m 69.192499,527.71829 c -3.408147,0 -6.630952,2.4046 -10.153184,5.22229 -3.522232,2.81768 -7.335325,6.06707 -12.131077,6.06707 -4.550968,0 -8.04666,-1.67056 -12.229972,-5.72148 l -14.339724,35.86485 0,0.0768 -0.03291,0.0768 c -1.382679,2.86028 -2.109753,5.29907 -2.109753,7.02705 0,2.41833 0.555498,3.96793 1.582315,5.0687 1.026806,1.10072 2.754503,1.91996 5.60403,1.91996 l 62.336593,0 c 2.849516,0 4.577214,-0.81924 5.60403,-1.91996 1.026817,-1.10077 1.582315,-2.65037 1.582315,-5.0687 0,-1.72798 -0.727084,-4.16677 -2.109753,-7.02705 -0.02584,-0.0542 -0.02184,-0.11133 -0.06593,-0.1536 -3.063656,-7.67949 -8.958051,-22.3711 -15.13088,-37.8232 -2.586683,-2.61441 -5.286924,-3.60953 -8.406045,-3.60953 z"
         style="fill:#ff4141;fill-opacity:1;stroke:none" />
    </clipPath>
    <clipPath
       clipPathUnits="userSpaceOnUse"
       id="clipPath4878">
      <path
         style="fill:#ffff3e;fill-opacity:0.54601231;stroke:none"
         d="m 13.393587,1025.862 6.601124,3.0614 8.8015,-4.6877 7.462141,0.4783 8.8015,18.6554 0,0 -0.09567,5.4531 -4.783422,1.2437 -32.335945,-0.5741 -2.3917119,-1.0523 -1.4350271,-3.7311 z"
         id="path4880"
         inkscape:connector-curvature="0"
         sodipodi:nodetypes="cccccccccccc" />
    </clipPath>
  </defs>
  <sodipodi:namedview
     id="base"
     pagecolor="#ffffff"
     bordercolor="#666666"
     borderopacity="1.0"
     inkscape:pageopacity="0.0"
     inkscape:pageshadow="2"
     inkscape:zoom="10.452764"
     inkscape:cx="30.416557"
     inkscape:cy="30.790205"
     inkscape:document-units="px"
     inkscape:current-layer="layer1"
     showgrid="false"
     inkscape:window-width="1280"
     inkscape:window-height="751"
     inkscape:window-x="0"
     inkscape:window-y="23"
     inkscape:window-maximized="0" />
  <metadata
     id="metadata3145">
    <rdf:RDF>
      <cc:Work
         rdf:about="">
        <dc:format>image/svg+xml</dc:format>
        <dc:type
           rdf:resource="http://purl.org/dc/dcmitype/StillImage" />
        <dc:title />
      </cc:Work>
    </rdf:RDF>
  </metadata>
  <g
     inkscape:label="Layer 1"
     inkscape:groupmode="layer"
     id="layer1"
     transform="translate(0,-997.3622)">
    <g
       id="g4872"
       clip-path="url(#clipPath4878)">
      <rect
         y="1023.4636"
         x="5.6330857"
         height="27.453388"
         width="9.6834612"
         id="rect3033"
         style="fill:#ff358b;fill-opacity:1;stroke:none" />
      <rect
         style="fill:#aeee00;fill-opacity:1;stroke:none"
         id="rect3035"
         width="9.6834612"
         height="27.453388"
         x="25.000008"
         y="1023.4636" />
      <rect
         style="fill:#fef501;fill-opacity:1;stroke:none"
         id="rect3037"
         width="9.6834612"
         height="27.453388"
         x="34.683472"
         y="1023.4636" />
      <rect
         style="fill:#01b0f0;fill-opacity:1;stroke:none"
         id="rect3039"
         width="9.6834612"
         height="27.453388"
         x="15.316545"
         y="1023.4636" />
    </g>
    <g
       style="font-size:18.96536446px;font-style:normal;font-variant:normal;font-weight:500;font-stretch:normal;text-align:start;line-height:125%;letter-spacing:0px;word-spacing:0px;writing-mode:lr-tb;text-anchor:start;fill:#000000;fill-opacity:1;stroke:none;font-family:Rubik;-inkscape-font-specification:Rubik Medium"
       id="text3047"
       transform="translate(0,-2.4998)">
      <path
         d="m 20.956528,1045.2508 c 0.139073,0 0.259187,0.051 0.360342,0.1517 0.101142,0.1011 0.151716,0.2213 0.151723,0.3603 l 0,1.669 c -7e-6,0.1391 -0.05058,0.2592 -0.151723,0.3603 -0.101155,0.1012 -0.221269,0.1517 -0.360342,0.1517 l -1.631021,0 c -0.139084,0 -0.259198,-0.051 -0.360342,-0.1517 -0.101153,-0.1011 -0.151727,-0.2212 -0.151723,-0.3603 l 0,-1.669 c -4e-6,-0.139 0.05057,-0.2592 0.151723,-0.3603 0.101144,-0.1012 0.221258,-0.1517 0.360342,-0.1517 l 1.631021,0 m -0.758614,-10.7724 c 0.594242,10e-5 1.169524,0.082 1.725848,0.2466 0.568953,0.1644 1.068374,0.4109 1.498264,0.7396 0.442516,0.3161 0.796535,0.7144 1.06206,1.1949 0.265505,0.4678 0.398262,1.0115 0.398273,1.631 -1.1e-5,0.5057 -0.08219,0.9483 -0.24655,1.3276 -0.151733,0.3666 -0.35403,0.7017 -0.606892,1.0051 -0.240237,0.2908 -0.505752,0.5627 -0.796545,0.8155 -0.290811,0.2403 -0.568969,0.4742 -0.834476,0.7017 -0.252879,0.215 -0.480463,0.4426 -0.682753,0.6828 -0.189661,0.2402 -0.303453,0.4994 -0.341377,0.7776 -0.02529,0.1391 -0.08219,0.2592 -0.170688,0.3603 -0.08851,0.1012 -0.202304,0.1517 -0.341377,0.1517 l -1.441367,0 c -0.139084,0 -0.26552,-0.051 -0.379308,-0.1517 -0.101152,-0.1011 -0.145405,-0.2212 -0.132757,-0.3603 0.02528,-0.4931 0.126431,-0.923 0.303446,-1.2897 0.189649,-0.3793 0.410911,-0.7143 0.663787,-1.0051 0.26551,-0.3035 0.543669,-0.5753 0.834476,-0.8155 0.30344,-0.2403 0.581598,-0.4678 0.834476,-0.6828 0.252865,-0.2276 0.461484,-0.4488 0.625857,-0.6638 0.164359,-0.2276 0.246543,-0.4741 0.24655,-0.7396 -7e-6,-0.4805 -0.202304,-0.8724 -0.606891,-1.1759 -0.404602,-0.3161 -0.941953,-0.4741 -1.612056,-0.4741 -1.074709,0 -1.864931,0.5373 -2.370671,1.612 -0.06322,0.1391 -0.13276,0.2466 -0.208619,0.3224 -0.06322,0.063 -0.177013,0.095 -0.341377,0.095 l -1.536194,0 c -0.113793,0 -0.214942,-0.038 -0.303446,-0.1138 -0.07586,-0.076 -0.113793,-0.177 -0.113792,-0.3035 0.01264,-0.4425 0.1454,-0.8913 0.398273,-1.3465 0.265513,-0.4678 0.613211,-0.885 1.043095,-1.2517 0.442522,-0.3793 0.954587,-0.6891 1.536194,-0.9293 0.594244,-0.2402 1.226422,-0.3603 1.896537,-0.3604"
         id="path3194"
         inkscape:connector-curvature="0" />
      <path
         d="m 32.210694,1045.118 c -7e-6,-0.1391 -0.04426,-0.2529 -0.132758,-0.3414 -0.08851,-0.088 -0.246556,-0.1707 -0.474134,-0.2465 -0.214947,-0.076 -0.505749,-0.1517 -0.872407,-0.2276 -0.366668,-0.076 -0.83448,-0.177 -1.403437,-0.3034 -0.55632,-0.1265 -1.01781,-0.2845 -1.384471,-0.4742 -0.366666,-0.1896 -0.66379,-0.4109 -0.891372,-0.6638 -0.214943,-0.2528 -0.366665,-0.5373 -0.455169,-0.8534 -0.08851,-0.3287 -0.132759,-0.6828 -0.132758,-1.0621 -1e-6,-0.3793 0.0885,-0.7523 0.265515,-1.1189 0.177009,-0.3667 0.42988,-0.6891 0.758615,-0.9673 0.341374,-0.2908 0.75229,-0.5247 1.232749,-0.7017 0.480452,-0.177 1.030447,-0.2655 1.649986,-0.2655 0.61953,0 1.169525,0.07 1.649987,0.2086 0.493093,0.1391 0.91033,0.3224 1.251714,0.55 0.341369,0.2276 0.606883,0.4931 0.796545,0.7966 0.189645,0.2908 0.297116,0.5879 0.322412,0.8913 0.01263,0.1391 -0.03794,0.2592 -0.151723,0.3604 -0.101158,0.1011 -0.221271,0.1517 -0.360342,0.1517 l -1.460333,0 c -0.189661,0 -0.335062,-0.032 -0.436204,-0.095 -0.08851,-0.076 -0.18966,-0.1581 -0.303446,-0.2466 -0.113798,-0.088 -0.26552,-0.1643 -0.455168,-0.2276 -0.189659,-0.076 -0.47414,-0.1137 -0.853442,-0.1138 -0.379311,10e-5 -0.714366,0.057 -1.005164,0.1707 -0.290806,0.1138 -0.436207,0.3161 -0.436203,0.6069 -4e-6,0.1391 0.0316,0.2592 0.09483,0.3604 0.07586,0.089 0.208616,0.1707 0.398273,0.2465 0.202293,0.076 0.47413,0.1581 0.815511,0.2466 0.354015,0.076 0.809183,0.1707 1.365506,0.2845 1.125271,0.2402 1.915494,0.6195 2.370671,1.1379 0.467803,0.5057 0.701709,1.1379 0.701718,1.8965 -9e-6,0.3793 -0.09484,0.7523 -0.28448,1.119 -0.189663,0.354 -0.467821,0.6764 -0.834476,0.9672 -0.354028,0.2782 -0.796553,0.5057 -1.327576,0.6828 -0.518393,0.1643 -1.106318,0.2465 -1.763779,0.2465 -0.670114,0 -1.264361,-0.076 -1.782744,-0.2276 -0.505746,-0.1643 -0.935627,-0.373 -1.289645,-0.6258 -0.354022,-0.2529 -0.625858,-0.5374 -0.815511,-0.8535 -0.189654,-0.3161 -0.290803,-0.6258 -0.303445,-0.9293 -0.01264,-0.1391 0.03161,-0.2592 0.132757,-0.3603 0.113791,-0.1012 0.240227,-0.1517 0.379307,-0.1517 l 1.460334,0 c 0.18965,0 0.328729,0.044 0.417238,0.1327 0.101145,0.089 0.208615,0.1897 0.322411,0.3035 0.126432,0.1137 0.29712,0.2149 0.512065,0.3034 0.214936,0.089 0.537347,0.1328 0.967233,0.1328 0.189649,0 0.385624,-0.013 0.587926,-0.038 0.202292,-0.025 0.385624,-0.063 0.549996,-0.1138 0.177004,-0.063 0.322405,-0.139 0.436203,-0.2275 0.113786,-0.1012 0.170682,-0.2213 0.170689,-0.3604"
         id="path3196"
         inkscape:connector-curvature="0" />
    </g>
    <path
       style="text-indent:0;text-transform:none;direction:ltr;block-progression:tb;baseline-shift:baseline;color:#000000;fill:#000000;fill-opacity:1;stroke:none;marker:none;visibility:visible;display:inline;overflow:visible;enable-background:accumulate"
       d="M 15.96875 1.03125 C 14.655932 1.03125 13.5625 2.1246 13.5625 3.4375 L 13.5625 7.03125 C 13.5625 8.34415 14.655932 9.4375 15.96875 9.4375 L 16.59375 9.4375 L 16.59375 18.8125 C 12.640175 27.3234 8.6582265 35.84075 4.6875 44.34375 L 4.65625 44.4375 C 3.8902128 45.8138 3.34375 47.1683 3.34375 48.5625 C 3.34375 50.0888 3.8307757 51.5103 4.90625 52.5 C 5.9817217 53.4898 7.5091077 53.96875 9.34375 53.96875 L 40.65625 53.96875 C 42.490893 53.96875 44.018276 53.4898 45.09375 52.5 C 46.169222 51.5103 46.65625 50.0888 46.65625 48.5625 C 46.65625 47.1683 46.109787 45.8138 45.34375 44.4375 L 45.3125 44.34375 L 33.4375 18.8125 L 33.4375 9.4375 L 34.03125 9.4375 C 35.34407 9.4375 36.4375 8.34415 36.4375 7.03125 L 36.4375 3.4375 C 36.4375 2.1246 35.34407 1.03125 34.03125 1.03125 L 15.96875 1.03125 z M 15.96875 3.4375 L 34.03125 3.4375 L 34.03125 7.03125 L 32.21875 7.03125 L 31.03125 7.03125 L 31.03125 8.25 L 31.03125 19.34375 C 32.095535 21.641871 32.819698 23.189349 33.9375 25.59375 C 33.11022 25.311897 32.238703 25.1875 31.34375 25.1875 C 28.877362 25.1875 26.929672 26.56335 25.15625 27.78125 C 23.382829 28.99915 21.781576 30.03125 20.15625 30.03125 C 18.168956 30.03125 17.001893 29.549635 15.0625 27.84375 L 19 19.34375 L 19 8.25 L 19 7.03125 L 17.78125 7.03125 L 15.96875 7.03125 L 15.96875 3.4375 z M 31.34375 27.59375 C 32.933878 27.59375 34.308299 28.052284 35.625 29.21875 C 38.477979 35.347341 41.726214 42.391441 43.15625 45.46875 C 43.1784 45.48675 43.20576 45.50825 43.21875 45.53125 C 43.91292 46.76405 44.25 47.8177 44.25 48.5625 C 44.25 49.6048 43.98426 50.2756 43.46875 50.75 C 42.953239 51.2244 42.08685 51.5625 40.65625 51.5625 L 9.34375 51.5625 C 7.9131495 51.5625 7.0467617 51.2244 6.53125 50.75 C 6.0157384 50.2756 5.75 49.6048 5.75 48.5625 C 5.75 47.8177 6.1183302 46.76405 6.8125 45.53125 L 6.8125 45.5 L 6.84375 45.46875 L 14.03125 30 C 16.131479 31.7459 17.87144 32.46875 20.15625 32.46875 C 22.563952 32.46875 24.481667 31.0895 26.25 29.875 C 28.018339 28.6606 29.632691 27.59375 31.34375 27.59375 z "
       transform="translate(0,997.3622)"
       id="path3051" />
  </g>
</svg>
